<?xml version="1.0" standalone="no"?>
<!DOCTYPE svg PUBLIC "-//W3C//DTD SVG 20010904//EN"
 "http://www.w3.org/TR/2001/REC-SVG-20010904/DTD/svg10.dtd">
<svg version="1.0" xmlns="http://www.w3.org/2000/svg"
 width="269.000000pt" height="234.000000pt" viewBox="0 0 269.000000 234.000000"
 preserveAspectRatio="xMidYMid meet">
<metadata>
Created by potrace 1.16, written by Peter Selinger 2001-2019
</metadata>
<g transform="translate(0.000000,234.000000) scale(0.100000,-0.100000)"
fill="#000000" stroke="none">
<path d="M262 2281 c-70 -24 -118 -65 -156 -131 l-31 -55 0 -925 0 -925 30
-53 c32 -59 66 -91 129 -125 l41 -22 1075 0 1075 0 53 30 c59 32 91 66 125
129 l22 41 0 925 0 925 -31 55 c-17 30 -50 70 -73 87 -85 66 -38 63 -1175 63
-972 -1 -1034 -2 -1084 -19z m2179 -94 c29 -16 54 -40 74 -72 30 -48 30 -49
34 -227 l3 -178 -1202 0 -1202 0 3 178 c4 178 4 179 34 227 20 32 45 56 74 72
l44 23 1047 0 1047 0 44 -23z m107 -1239 l-3 -673 -28 -47 c-17 -29 -44 -57
-71 -73 l-43 -25 -1053 0 -1053 0 -43 25 c-27 16 -54 44 -71 73 l-28 47 -3
673 -3 672 1201 0 1201 0 -3 -672z"/>
<path d="M320 2077 c-13 -7 -35 -28 -48 -47 -19 -29 -23 -44 -19 -84 4 -41 11
-55 41 -83 30 -27 44 -33 82 -33 84 0 134 50 134 135 0 42 -5 52 -39 86 -33
34 -45 39 -82 39 -24 0 -55 -6 -69 -13z"/>
<path d="M723 2071 c-132 -83 -35 -286 113 -235 133 46 108 239 -33 251 -36 3
-56 -1 -80 -16z"/>
<path d="M1140 2072 c-66 -33 -89 -121 -47 -183 49 -75 142 -86 203 -25 61 61
50 154 -25 203 -41 27 -84 29 -131 5z"/>
<path d="M1392 1358 c-15 -19 -184 -832 -176 -851 9 -24 44 -32 62 -13 22 22
193 835 180 859 -10 20 -51 23 -66 5z"/>
<path d="M972 1128 c-215 -181 -203 -170 -200 -199 2 -20 37 -55 145 -148 78
-66 150 -121 161 -121 23 0 42 19 42 42 0 10 -50 60 -120 120 -66 56 -120 105
-120 109 0 4 54 53 120 109 90 77 120 108 120 126 0 20 -24 44 -44 44 -3 0
-50 -37 -104 -82z"/>
<path d="M1598 1199 c-41 -23 -22 -53 102 -159 66 -56 120 -105 120 -109 0 -4
-54 -53 -120 -109 -70 -60 -120 -110 -120 -120 0 -23 19 -42 42 -42 11 0 83
55 161 121 171 146 174 153 95 220 -192 162 -250 209 -256 209 -4 0 -15 -5
-24 -11z"/>
</g>
</svg>
